<svg width="165" height="26" viewBox="0 0 165 26" fill="none" xmlns="http://www.w3.org/2000/svg">
<path d="M12.0776 4.52547C10.8658 4.52547 9.83813 4.75961 8.99184 5.22789C8.14733 5.69661 7.46145 6.32485 6.93598 7.11261C6.41007 7.90126 6.02803 8.79849 5.78764 9.8043C5.54769 10.8092 5.42794 11.849 5.42794 12.9232C5.42794 13.9513 5.54769 14.9513 5.78764 15.9218C6.02803 16.8937 6.41007 17.7677 6.93598 18.5443C7.46145 19.3222 8.14733 19.9437 8.99184 20.4115C9.83813 20.8812 10.8658 21.1162 12.0776 21.1162C13.2885 21.1162 14.3171 20.8812 15.163 20.4115C16.0079 19.9437 16.6934 19.3222 17.2188 18.5443C17.7448 17.7677 18.1286 16.8937 18.3667 15.9218C18.6071 14.9513 18.7278 13.9513 18.7278 12.9232C18.7278 11.849 18.6071 10.8092 18.3667 9.8043C18.1286 8.79849 17.7448 7.90126 17.2188 7.11261C16.6934 6.32485 16.0079 5.69661 15.163 5.22789C14.3171 4.75961 13.2885 4.52547 12.0776 4.52547ZM12.0776 25.6055C10.2032 25.6055 8.5182 25.2797 7.02088 24.6283C5.52446 23.9781 4.26261 23.0809 3.23402 21.9379C2.20586 20.7954 1.41766 19.4531 0.868508 17.9098C0.320251 16.3673 0.0458984 14.7064 0.0458984 12.9232C0.0458984 11.0947 0.320251 9.39858 0.868508 7.83289C1.41766 6.26855 2.20586 4.9026 3.23402 3.73638C4.26261 2.57105 5.52446 1.65728 7.02088 0.994638C8.5182 0.331992 10.2032 0 12.0776 0C13.9744 0 15.6648 0.331992 17.1505 0.994638C18.6357 1.65728 19.8927 2.57105 20.9208 3.73638C21.9498 4.9026 22.7372 6.26855 23.2868 7.83289C23.8341 9.39858 24.1089 11.0947 24.1089 12.9232C24.1089 14.7064 23.8341 16.3673 23.2868 17.9098C22.7372 19.4531 21.9498 20.7954 20.9208 21.9379C19.8927 23.0809 18.6357 23.9781 17.1505 24.6283C15.6648 25.2797 13.9744 25.6055 12.0776 25.6055Z" fill="#FFFFFF"/>
<path d="M34.1502 4.76519V12.1003H38.333C38.9496 12.1003 39.5434 12.0552 40.1154 11.9627C40.6864 11.872 41.1896 11.6946 41.6243 11.4314C42.0573 11.1696 42.4063 10.7974 42.6686 10.3175C42.9308 9.83758 43.0636 9.20934 43.0636 8.43276C43.0636 7.65617 42.9308 7.02704 42.6686 6.54714C42.4063 6.06725 42.0573 5.69594 41.6243 5.43276C41.1896 5.17091 40.6864 4.99352 40.1154 4.90192C39.5434 4.81032 38.9496 4.76519 38.333 4.76519H34.1502ZM34.1502 25.0565H28.7695V0.582886H39.8062C41.3375 0.582886 42.64 0.806299 43.7146 1.25089C44.7883 1.69638 45.6628 2.2853 46.3375 3.01676C47.0113 3.74821 47.5023 4.58199 47.8107 5.51855C48.1199 6.45644 48.2736 7.42695 48.2736 8.43276C48.2736 9.41533 48.1199 10.3814 47.8107 11.3295C47.5023 12.2773 47.0113 13.1173 46.3375 13.8483C45.6628 14.5798 44.7883 15.1682 43.7146 15.6133C42.64 16.0597 41.3375 16.2808 39.8062 16.2808H34.1502V25.0565Z" fill="#FFFFFF"/>
<path d="M63.4589 25.057H58.0773V5.10746H50.7422V0.582886H70.7945V5.10746H63.4589V25.057Z" fill="#FFFFFF"/>
<path d="M76.3475 0.582886H81.7295V25.0574H76.3475V0.582886Z" fill="#FFFFFF"/>
<path d="M99.7897 25.6059C97.9166 25.6059 96.2312 25.2802 94.7347 24.6278C93.2379 23.9772 91.9751 23.0804 90.9465 21.9366C89.9188 20.7945 89.1311 19.4531 88.5824 17.9089C88.0332 16.3673 87.7598 14.7051 87.7598 12.9223C87.7598 11.0947 88.0332 9.39768 88.5824 7.83245C89.1311 6.26765 89.9188 4.9017 90.9465 3.73548C91.9751 2.5706 93.2379 1.65728 94.7347 0.993745C96.2312 0.331099 97.9166 0 99.7897 0C101.14 0 102.413 0.19437 103.613 0.582664C104.813 0.971404 105.885 1.53664 106.835 2.28016C107.784 3.02234 108.565 3.94192 109.182 5.03843C109.799 6.13539 110.187 7.39277 110.349 8.80966H105.138C105.047 8.19214 104.842 7.62646 104.521 7.11261C104.201 6.59875 103.802 6.14701 103.321 5.75782C102.841 5.36953 102.297 5.06792 101.694 4.84987C101.087 4.63361 100.453 4.52458 99.7897 4.52458C98.5788 4.52458 97.5511 4.75872 96.7057 5.22789C95.8603 5.69572 95.1744 6.32396 94.6485 7.11261C94.1235 7.90036 93.7401 8.79759 93.5006 9.8034C93.262 10.8088 93.14 11.8481 93.14 12.9223C93.14 13.9509 93.262 14.9509 93.5006 15.9223C93.7401 16.8937 94.1235 17.7672 94.6485 18.5443C95.1744 19.3208 95.8603 19.9451 96.7057 20.4129C97.5511 20.8807 98.5788 21.1149 99.7897 21.1149C101.436 21.1149 102.722 20.6122 103.647 19.6068C104.572 18.601 105.138 17.2757 105.343 15.63H110.553C110.416 17.1618 110.061 18.5443 109.49 19.7775C108.921 21.0116 108.166 22.0635 107.228 22.9317C106.292 23.7998 105.194 24.462 103.937 24.92C102.682 25.3762 101.298 25.6059 99.7897 25.6059Z" fill="#FFFFFF"/>
<path d="M126.868 4.52547C125.656 4.52547 124.629 4.75961 123.783 5.22789C122.936 5.69661 122.252 6.32485 121.725 7.11261C121.201 7.90126 120.818 8.79849 120.578 9.8043C120.339 10.8092 120.218 11.849 120.218 12.9232C120.218 13.9513 120.339 14.9513 120.578 15.9218C120.818 16.8937 121.201 17.7677 121.725 18.5443C122.252 19.3222 122.936 19.9437 123.783 20.4115C124.629 20.8812 125.656 21.1162 126.868 21.1162C128.079 21.1162 129.108 20.8812 129.952 20.4115C130.799 19.9437 131.483 19.3222 132.009 18.5443C132.535 17.7677 132.919 16.8937 133.157 15.9218C133.398 14.9513 133.518 13.9513 133.518 12.9232C133.518 11.849 133.398 10.8092 133.157 9.8043C132.919 8.79849 132.535 7.90126 132.009 7.11261C131.483 6.32485 130.799 5.69661 129.952 5.22789C129.108 4.75961 128.079 4.52547 126.868 4.52547ZM126.868 25.6055C124.994 25.6055 123.309 25.2797 121.812 24.6283C120.314 23.9781 119.052 23.0809 118.024 21.9379C116.997 20.7954 116.208 19.4531 115.659 17.9098C115.111 16.3673 114.835 14.7064 114.835 12.9232C114.835 11.0947 115.111 9.39858 115.659 7.83289C116.208 6.26855 116.997 4.9026 118.024 3.73638C119.052 2.57105 120.314 1.65728 121.812 0.994638C123.309 0.331992 124.994 0 126.868 0C128.764 0 130.455 0.331992 131.941 0.994638C133.426 1.65728 134.683 2.57105 135.711 3.73638C136.741 4.9026 137.528 6.26855 138.077 7.83289C138.625 9.39858 138.9 11.0947 138.9 12.9232C138.9 14.7064 138.625 16.3673 138.077 17.9098C137.528 19.4531 136.741 20.7954 135.711 21.9379C134.683 23.0809 133.426 23.9781 131.941 24.6283C130.455 25.2797 128.764 25.6055 126.868 25.6055Z" fill="#FFFFFF"/>
<path d="M164.918 25.057H159.537L149.357 8.67226H149.288V25.057H144.248V0.582886H149.595L159.812 17.002H159.88V0.582886H164.918V25.057Z" fill="#FFFFFF"/>
</svg>
